<?xml version="1.0" encoding="utf-8" standalone="no"?>
<!DOCTYPE svg PUBLIC "-//W3C//DTD SVG 1.1//EN"
  "http://www.w3.org/Graphics/SVG/1.1/DTD/svg11.dtd">
<!-- Created with matplotlib (https://matplotlib.org/) -->
<svg height="720pt" version="1.1" viewBox="0 0 720 720" width="720pt" xmlns="http://www.w3.org/2000/svg" xmlns:xlink="http://www.w3.org/1999/xlink">
 <defs>
  <style type="text/css">
*{stroke-linecap:butt;stroke-linejoin:round;}
  </style>
 </defs>
 <g id="figure_1">
  <g id="patch_1">
   <path d="M 0 720 
L 720 720 
L 720 0 
L 0 0 
z
" style="fill:#ffffff;"/>
  </g>
  <g id="axes_1">
   <g id="patch_2">
    <path d="M 90 640.8 
L 648 640.8 
L 648 86.4 
L 90 86.4 
z
" style="fill:#ffffff;"/>
   </g>
   <g id="patch_3">
    <path clip-path="url(#pfc02cef910)" d="M 103.95 640.8 
L 131.85 640.8 
L 131.85 112.8 
L 103.95 112.8 
z
" style="fill:#1f77b4;"/>
   </g>
   <g id="patch_4">
    <path clip-path="url(#pfc02cef910)" d="M 159.75 640.8 
L 187.65 640.8 
L 187.65 296.055768 
L 159.75 296.055768 
z
" style="fill:#ff7f0e;"/>
   </g>
   <g id="patch_5">
    <path clip-path="url(#pfc02cef910)" d="M 215.55 640.8 
L 243.45 640.8 
L 243.45 403.671452 
L 215.55 403.671452 
z
" style="fill:#2ca02c;"/>
   </g>
   <g id="patch_6">
    <path clip-path="url(#pfc02cef910)" d="M 271.35 640.8 
L 299.25 640.8 
L 299.25 463.908181 
L 271.35 463.908181 
z
" style="fill:#d62728;"/>
   </g>
   <g id="patch_7">
    <path clip-path="url(#pfc02cef910)" d="M 327.15 640.8 
L 355.05 640.8 
L 355.05 503.104915 
L 327.15 503.104915 
z
" style="fill:#9467bd;"/>
   </g>
   <g id="patch_8">
    <path clip-path="url(#pfc02cef910)" d="M 382.95 640.8 
L 410.85 640.8 
L 410.85 498.065706 
L 382.95 498.065706 
z
" style="fill:#8c564b;"/>
   </g>
   <g id="patch_9">
    <path clip-path="url(#pfc02cef910)" d="M 438.75 640.8 
L 466.65 640.8 
L 466.65 500.507384 
L 438.75 500.507384 
z
" style="fill:#e377c2;"/>
   </g>
   <g id="patch_10">
    <path clip-path="url(#pfc02cef910)" d="M 494.55 640.8 
L 522.45 640.8 
L 522.45 578.043666 
L 494.55 578.043666 
z
" style="fill:#7f7f7f;"/>
   </g>
   <g id="patch_11">
    <path clip-path="url(#pfc02cef910)" d="M 550.35 640.8 
L 578.25 640.8 
L 578.25 592.122281 
L 550.35 592.122281 
z
" style="fill:#bcbd22;"/>
   </g>
   <g id="patch_12">
    <path clip-path="url(#pfc02cef910)" d="M 606.15 640.8 
L 634.05 640.8 
L 634.05 601.421439 
L 606.15 601.421439 
z
" style="fill:#17becf;"/>
   </g>
   <g id="matplotlib.axis_1">
    <g id="xtick_1">
     <g id="line2d_1">
      <defs>
       <path d="M 0 0 
L 0 3.5 
" id="m08845c842c" style="stroke:#000000;stroke-width:0.8;"/>
      </defs>
      <g>
       <use style="stroke:#000000;stroke-width:0.8;" x="117.9" xlink:href="#m08845c842c" y="640.8"/>
      </g>
     </g>
     <g id="text_1">
      <!-- Toyota -->
      <defs>
       <path d="M -0.296875 72.90625 
L 61.375 72.90625 
L 61.375 64.59375 
L 35.5 64.59375 
L 35.5 0 
L 25.59375 0 
L 25.59375 64.59375 
L -0.296875 64.59375 
z
" id="DejaVuSans-84"/>
       <path d="M 30.609375 48.390625 
Q 23.390625 48.390625 19.1875 42.75 
Q 14.984375 37.109375 14.984375 27.296875 
Q 14.984375 17.484375 19.15625 11.84375 
Q 23.34375 6.203125 30.609375 6.203125 
Q 37.796875 6.203125 41.984375 11.859375 
Q 46.1875 17.53125 46.1875 27.296875 
Q 46.1875 37.015625 41.984375 42.703125 
Q 37.796875 48.390625 30.609375 48.390625 
z
M 30.609375 56 
Q 42.328125 56 49.015625 48.375 
Q 55.71875 40.765625 55.71875 27.296875 
Q 55.71875 13.875 49.015625 6.21875 
Q 42.328125 -1.421875 30.609375 -1.421875 
Q 18.84375 -1.421875 12.171875 6.21875 
Q 5.515625 13.875 5.515625 27.296875 
Q 5.515625 40.765625 12.171875 48.375 
Q 18.84375 56 30.609375 56 
z
" id="DejaVuSans-111"/>
       <path d="M 32.171875 -5.078125 
Q 28.375 -14.84375 24.75 -17.8125 
Q 21.140625 -20.796875 15.09375 -20.796875 
L 7.90625 -20.796875 
L 7.90625 -13.28125 
L 13.1875 -13.28125 
Q 16.890625 -13.28125 18.9375 -11.515625 
Q 21 -9.765625 23.484375 -3.21875 
L 25.09375 0.875 
L 2.984375 54.6875 
L 12.5 54.6875 
L 29.59375 11.921875 
L 46.6875 54.6875 
L 56.203125 54.6875 
z
" id="DejaVuSans-121"/>
       <path d="M 18.3125 70.21875 
L 18.3125 54.6875 
L 36.8125 54.6875 
L 36.8125 47.703125 
L 18.3125 47.703125 
L 18.3125 18.015625 
Q 18.3125 11.328125 20.140625 9.421875 
Q 21.96875 7.515625 27.59375 7.515625 
L 36.8125 7.515625 
L 36.8125 0 
L 27.59375 0 
Q 17.1875 0 13.234375 3.875 
Q 9.28125 7.765625 9.28125 18.015625 
L 9.28125 47.703125 
L 2.6875 47.703125 
L 2.6875 54.6875 
L 9.28125 54.6875 
L 9.28125 70.21875 
z
" id="DejaVuSans-116"/>
       <path d="M 34.28125 27.484375 
Q 23.390625 27.484375 19.1875 25 
Q 14.984375 22.515625 14.984375 16.5 
Q 14.984375 11.71875 18.140625 8.90625 
Q 21.296875 6.109375 26.703125 6.109375 
Q 34.1875 6.109375 38.703125 11.40625 
Q 43.21875 16.703125 43.21875 25.484375 
L 43.21875 27.484375 
z
M 52.203125 31.203125 
L 52.203125 0 
L 43.21875 0 
L 43.21875 8.296875 
Q 40.140625 3.328125 35.546875 0.953125 
Q 30.953125 -1.421875 24.3125 -1.421875 
Q 15.921875 -1.421875 10.953125 3.296875 
Q 6 8.015625 6 15.921875 
Q 6 25.140625 12.171875 29.828125 
Q 18.359375 34.515625 30.609375 34.515625 
L 43.21875 34.515625 
L 43.21875 35.40625 
Q 43.21875 41.609375 39.140625 45 
Q 35.0625 48.390625 27.6875 48.390625 
Q 23 48.390625 18.546875 47.265625 
Q 14.109375 46.140625 10.015625 43.890625 
L 10.015625 52.203125 
Q 14.9375 54.109375 19.578125 55.046875 
Q 24.21875 56 28.609375 56 
Q 40.484375 56 46.34375 49.84375 
Q 52.203125 43.703125 52.203125 31.203125 
z
" id="DejaVuSans-97"/>
      </defs>
      <g transform="translate(120.659375 682.085938)rotate(-90)scale(0.1 -0.1)">
       <use xlink:href="#DejaVuSans-84"/>
       <use x="60.818359" xlink:href="#DejaVuSans-111"/>
       <use x="122" xlink:href="#DejaVuSans-121"/>
       <use x="181.179688" xlink:href="#DejaVuSans-111"/>
       <use x="242.361328" xlink:href="#DejaVuSans-116"/>
       <use x="281.570312" xlink:href="#DejaVuSans-97"/>
      </g>
     </g>
    </g>
    <g id="xtick_2">
     <g id="line2d_2">
      <g>
       <use style="stroke:#000000;stroke-width:0.8;" x="173.7" xlink:href="#m08845c842c" y="640.8"/>
      </g>
     </g>
     <g id="text_2">
      <!-- Isuzu -->
      <defs>
       <path d="M 9.8125 72.90625 
L 19.671875 72.90625 
L 19.671875 0 
L 9.8125 0 
z
" id="DejaVuSans-73"/>
       <path d="M 44.28125 53.078125 
L 44.28125 44.578125 
Q 40.484375 46.53125 36.375 47.5 
Q 32.28125 48.484375 27.875 48.484375 
Q 21.1875 48.484375 17.84375 46.4375 
Q 14.5 44.390625 14.5 40.28125 
Q 14.5 37.15625 16.890625 35.375 
Q 19.28125 33.59375 26.515625 31.984375 
L 29.59375 31.296875 
Q 39.15625 29.25 43.1875 25.515625 
Q 47.21875 21.78125 47.21875 15.09375 
Q 47.21875 7.46875 41.1875 3.015625 
Q 35.15625 -1.421875 24.609375 -1.421875 
Q 20.21875 -1.421875 15.453125 -0.5625 
Q 10.6875 0.296875 5.421875 2 
L 5.421875 11.28125 
Q 10.40625 8.6875 15.234375 7.390625 
Q 20.0625 6.109375 24.8125 6.109375 
Q 31.15625 6.109375 34.5625 8.28125 
Q 37.984375 10.453125 37.984375 14.40625 
Q 37.984375 18.0625 35.515625 20.015625 
Q 33.0625 21.96875 24.703125 23.78125 
L 21.578125 24.515625 
Q 13.234375 26.265625 9.515625 29.90625 
Q 5.8125 33.546875 5.8125 39.890625 
Q 5.8125 47.609375 11.28125 51.796875 
Q 16.75 56 26.8125 56 
Q 31.78125 56 36.171875 55.265625 
Q 40.578125 54.546875 44.28125 53.078125 
z
" id="DejaVuSans-115"/>
       <path d="M 8.5 21.578125 
L 8.5 54.6875 
L 17.484375 54.6875 
L 17.484375 21.921875 
Q 17.484375 14.15625 20.5 10.265625 
Q 23.53125 6.390625 29.59375 6.390625 
Q 36.859375 6.390625 41.078125 11.03125 
Q 45.3125 15.671875 45.3125 23.6875 
L 45.3125 54.6875 
L 54.296875 54.6875 
L 54.296875 0 
L 45.3125 0 
L 45.3125 8.40625 
Q 42.046875 3.421875 37.71875 1 
Q 33.40625 -1.421875 27.6875 -1.421875 
Q 18.265625 -1.421875 13.375 4.4375 
Q 8.5 10.296875 8.5 21.578125 
z
M 31.109375 56 
z
" id="DejaVuSans-117"/>
       <path d="M 5.515625 54.6875 
L 48.1875 54.6875 
L 48.1875 46.484375 
L 14.40625 7.171875 
L 48.1875 7.171875 
L 48.1875 0 
L 4.296875 0 
L 4.296875 8.203125 
L 38.09375 47.515625 
L 5.515625 47.515625 
z
" id="DejaVuSans-122"/>
      </defs>
      <g transform="translate(176.459375 673.882812)rotate(-90)scale(0.1 -0.1)">
       <use xlink:href="#DejaVuSans-73"/>
       <use x="29.492188" xlink:href="#DejaVuSans-115"/>
       <use x="81.591797" xlink:href="#DejaVuSans-117"/>
       <use x="144.970703" xlink:href="#DejaVuSans-122"/>
       <use x="197.460938" xlink:href="#DejaVuSans-117"/>
      </g>
     </g>
    </g>
    <g id="xtick_3">
     <g id="line2d_3">
      <g>
       <use style="stroke:#000000;stroke-width:0.8;" x="229.5" xlink:href="#m08845c842c" y="640.8"/>
      </g>
     </g>
     <g id="text_3">
      <!-- Honda -->
      <defs>
       <path d="M 9.8125 72.90625 
L 19.671875 72.90625 
L 19.671875 43.015625 
L 55.515625 43.015625 
L 55.515625 72.90625 
L 65.375 72.90625 
L 65.375 0 
L 55.515625 0 
L 55.515625 34.71875 
L 19.671875 34.71875 
L 19.671875 0 
L 9.8125 0 
z
" id="DejaVuSans-72"/>
       <path d="M 54.890625 33.015625 
L 54.890625 0 
L 45.90625 0 
L 45.90625 32.71875 
Q 45.90625 40.484375 42.875 44.328125 
Q 39.84375 48.1875 33.796875 48.1875 
Q 26.515625 48.1875 22.3125 43.546875 
Q 18.109375 38.921875 18.109375 30.90625 
L 18.109375 0 
L 9.078125 0 
L 9.078125 54.6875 
L 18.109375 54.6875 
L 18.109375 46.1875 
Q 21.34375 51.125 25.703125 53.5625 
Q 30.078125 56 35.796875 56 
Q 45.21875 56 50.046875 50.171875 
Q 54.890625 44.34375 54.890625 33.015625 
z
" id="DejaVuSans-110"/>
       <path d="M 45.40625 46.390625 
L 45.40625 75.984375 
L 54.390625 75.984375 
L 54.390625 0 
L 45.40625 0 
L 45.40625 8.203125 
Q 42.578125 3.328125 38.25 0.953125 
Q 33.9375 -1.421875 27.875 -1.421875 
Q 17.96875 -1.421875 11.734375 6.484375 
Q 5.515625 14.40625 5.515625 27.296875 
Q 5.515625 40.1875 11.734375 48.09375 
Q 17.96875 56 27.875 56 
Q 33.9375 56 38.25 53.625 
Q 42.578125 51.265625 45.40625 46.390625 
z
M 14.796875 27.296875 
Q 14.796875 17.390625 18.875 11.75 
Q 22.953125 6.109375 30.078125 6.109375 
Q 37.203125 6.109375 41.296875 11.75 
Q 45.40625 17.390625 45.40625 27.296875 
Q 45.40625 37.203125 41.296875 42.84375 
Q 37.203125 48.484375 30.078125 48.484375 
Q 22.953125 48.484375 18.875 42.84375 
Q 14.796875 37.203125 14.796875 27.296875 
z
" id="DejaVuSans-100"/>
      </defs>
      <g transform="translate(232.259375 680.253125)rotate(-90)scale(0.1 -0.1)">
       <use xlink:href="#DejaVuSans-72"/>
       <use x="75.195312" xlink:href="#DejaVuSans-111"/>
       <use x="136.376953" xlink:href="#DejaVuSans-110"/>
       <use x="199.755859" xlink:href="#DejaVuSans-100"/>
       <use x="263.232422" xlink:href="#DejaVuSans-97"/>
      </g>
     </g>
    </g>
    <g id="xtick_4">
     <g id="line2d_4">
      <g>
       <use style="stroke:#000000;stroke-width:0.8;" x="285.3" xlink:href="#m08845c842c" y="640.8"/>
      </g>
     </g>
     <g id="text_4">
      <!-- Mitsubishi -->
      <defs>
       <path d="M 9.8125 72.90625 
L 24.515625 72.90625 
L 43.109375 23.296875 
L 61.8125 72.90625 
L 76.515625 72.90625 
L 76.515625 0 
L 66.890625 0 
L 66.890625 64.015625 
L 48.09375 14.015625 
L 38.1875 14.015625 
L 19.390625 64.015625 
L 19.390625 0 
L 9.8125 0 
z
" id="DejaVuSans-77"/>
       <path d="M 9.421875 54.6875 
L 18.40625 54.6875 
L 18.40625 0 
L 9.421875 0 
z
M 9.421875 75.984375 
L 18.40625 75.984375 
L 18.40625 64.59375 
L 9.421875 64.59375 
z
" id="DejaVuSans-105"/>
       <path d="M 48.6875 27.296875 
Q 48.6875 37.203125 44.609375 42.84375 
Q 40.53125 48.484375 33.40625 48.484375 
Q 26.265625 48.484375 22.1875 42.84375 
Q 18.109375 37.203125 18.109375 27.296875 
Q 18.109375 17.390625 22.1875 11.75 
Q 26.265625 6.109375 33.40625 6.109375 
Q 40.53125 6.109375 44.609375 11.75 
Q 48.6875 17.390625 48.6875 27.296875 
z
M 18.109375 46.390625 
Q 20.953125 51.265625 25.265625 53.625 
Q 29.59375 56 35.59375 56 
Q 45.5625 56 51.78125 48.09375 
Q 58.015625 40.1875 58.015625 27.296875 
Q 58.015625 14.40625 51.78125 6.484375 
Q 45.5625 -1.421875 35.59375 -1.421875 
Q 29.59375 -1.421875 25.265625 0.953125 
Q 20.953125 3.328125 18.109375 8.203125 
L 18.109375 0 
L 9.078125 0 
L 9.078125 75.984375 
L 18.109375 75.984375 
z
" id="DejaVuSans-98"/>
       <path d="M 54.890625 33.015625 
L 54.890625 0 
L 45.90625 0 
L 45.90625 32.71875 
Q 45.90625 40.484375 42.875 44.328125 
Q 39.84375 48.1875 33.796875 48.1875 
Q 26.515625 48.1875 22.3125 43.546875 
Q 18.109375 38.921875 18.109375 30.90625 
L 18.109375 0 
L 9.078125 0 
L 9.078125 75.984375 
L 18.109375 75.984375 
L 18.109375 46.1875 
Q 21.34375 51.125 25.703125 53.5625 
Q 30.078125 56 35.796875 56 
Q 45.21875 56 50.046875 50.171875 
Q 54.890625 44.34375 54.890625 33.015625 
z
" id="DejaVuSans-104"/>
      </defs>
      <g transform="translate(288.059375 698.125)rotate(-90)scale(0.1 -0.1)">
       <use xlink:href="#DejaVuSans-77"/>
       <use x="86.279297" xlink:href="#DejaVuSans-105"/>
       <use x="114.0625" xlink:href="#DejaVuSans-116"/>
       <use x="153.271484" xlink:href="#DejaVuSans-115"/>
       <use x="205.371094" xlink:href="#DejaVuSans-117"/>
       <use x="268.75" xlink:href="#DejaVuSans-98"/>
       <use x="332.226562" xlink:href="#DejaVuSans-105"/>
       <use x="360.009766" xlink:href="#DejaVuSans-115"/>
       <use x="412.109375" xlink:href="#DejaVuSans-104"/>
       <use x="475.488281" xlink:href="#DejaVuSans-105"/>
      </g>
     </g>
    </g>
    <g id="xtick_5">
     <g id="line2d_5">
      <g>
       <use style="stroke:#000000;stroke-width:0.8;" x="341.1" xlink:href="#m08845c842c" y="640.8"/>
      </g>
     </g>
     <g id="text_5">
      <!-- Nissan -->
      <defs>
       <path d="M 9.8125 72.90625 
L 23.09375 72.90625 
L 55.421875 11.921875 
L 55.421875 72.90625 
L 64.984375 72.90625 
L 64.984375 0 
L 51.703125 0 
L 19.390625 60.984375 
L 19.390625 0 
L 9.8125 0 
z
" id="DejaVuSans-78"/>
      </defs>
      <g transform="translate(343.859375 680.94375)rotate(-90)scale(0.1 -0.1)">
       <use xlink:href="#DejaVuSans-78"/>
       <use x="74.804688" xlink:href="#DejaVuSans-105"/>
       <use x="102.587891" xlink:href="#DejaVuSans-115"/>
       <use x="154.6875" xlink:href="#DejaVuSans-115"/>
       <use x="206.787109" xlink:href="#DejaVuSans-97"/>
       <use x="268.066406" xlink:href="#DejaVuSans-110"/>
      </g>
     </g>
    </g>
    <g id="xtick_6">
     <g id="line2d_6">
      <g>
       <use style="stroke:#000000;stroke-width:0.8;" x="396.9" xlink:href="#m08845c842c" y="640.8"/>
      </g>
     </g>
     <g id="text_6">
      <!-- Ford -->
      <defs>
       <path d="M 9.8125 72.90625 
L 51.703125 72.90625 
L 51.703125 64.59375 
L 19.671875 64.59375 
L 19.671875 43.109375 
L 48.578125 43.109375 
L 48.578125 34.8125 
L 19.671875 34.8125 
L 19.671875 0 
L 9.8125 0 
z
" id="DejaVuSans-70"/>
       <path d="M 41.109375 46.296875 
Q 39.59375 47.171875 37.8125 47.578125 
Q 36.03125 48 33.890625 48 
Q 26.265625 48 22.1875 43.046875 
Q 18.109375 38.09375 18.109375 28.8125 
L 18.109375 0 
L 9.078125 0 
L 9.078125 54.6875 
L 18.109375 54.6875 
L 18.109375 46.1875 
Q 20.953125 51.171875 25.484375 53.578125 
Q 30.03125 56 36.53125 56 
Q 37.453125 56 38.578125 55.875 
Q 39.703125 55.765625 41.0625 55.515625 
z
" id="DejaVuSans-114"/>
      </defs>
      <g transform="translate(399.659375 670.123438)rotate(-90)scale(0.1 -0.1)">
       <use xlink:href="#DejaVuSans-70"/>
       <use x="57.472656" xlink:href="#DejaVuSans-111"/>
       <use x="118.654297" xlink:href="#DejaVuSans-114"/>
       <use x="159.751953" xlink:href="#DejaVuSans-100"/>
      </g>
     </g>
    </g>
    <g id="xtick_7">
     <g id="line2d_7">
      <g>
       <use style="stroke:#000000;stroke-width:0.8;" x="452.7" xlink:href="#m08845c842c" y="640.8"/>
      </g>
     </g>
     <g id="text_7">
      <!-- Mazda -->
      <g transform="translate(455.459375 680.28125)rotate(-90)scale(0.1 -0.1)">
       <use xlink:href="#DejaVuSans-77"/>
       <use x="86.279297" xlink:href="#DejaVuSans-97"/>
       <use x="147.558594" xlink:href="#DejaVuSans-122"/>
       <use x="200.048828" xlink:href="#DejaVuSans-100"/>
       <use x="263.525391" xlink:href="#DejaVuSans-97"/>
      </g>
     </g>
    </g>
    <g id="xtick_8">
     <g id="line2d_8">
      <g>
       <use style="stroke:#000000;stroke-width:0.8;" x="508.5" xlink:href="#m08845c842c" y="640.8"/>
      </g>
     </g>
     <g id="text_8">
      <!-- Suzuki -->
      <defs>
       <path d="M 53.515625 70.515625 
L 53.515625 60.890625 
Q 47.90625 63.578125 42.921875 64.890625 
Q 37.9375 66.21875 33.296875 66.21875 
Q 25.25 66.21875 20.875 63.09375 
Q 16.5 59.96875 16.5 54.203125 
Q 16.5 49.359375 19.40625 46.890625 
Q 22.3125 44.4375 30.421875 42.921875 
L 36.375 41.703125 
Q 47.40625 39.59375 52.65625 34.296875 
Q 57.90625 29 57.90625 20.125 
Q 57.90625 9.515625 50.796875 4.046875 
Q 43.703125 -1.421875 29.984375 -1.421875 
Q 24.8125 -1.421875 18.96875 -0.25 
Q 13.140625 0.921875 6.890625 3.21875 
L 6.890625 13.375 
Q 12.890625 10.015625 18.65625 8.296875 
Q 24.421875 6.59375 29.984375 6.59375 
Q 38.421875 6.59375 43.015625 9.90625 
Q 47.609375 13.234375 47.609375 19.390625 
Q 47.609375 24.75 44.3125 27.78125 
Q 41.015625 30.8125 33.5 32.328125 
L 27.484375 33.5 
Q 16.453125 35.6875 11.515625 40.375 
Q 6.59375 45.0625 6.59375 53.421875 
Q 6.59375 63.09375 13.40625 68.65625 
Q 20.21875 74.21875 32.171875 74.21875 
Q 37.3125 74.21875 42.625 73.28125 
Q 47.953125 72.359375 53.515625 70.515625 
z
" id="DejaVuSans-83"/>
       <path d="M 9.078125 75.984375 
L 18.109375 75.984375 
L 18.109375 31.109375 
L 44.921875 54.6875 
L 56.390625 54.6875 
L 27.390625 29.109375 
L 57.625 0 
L 45.90625 0 
L 18.109375 26.703125 
L 18.109375 0 
L 9.078125 0 
z
" id="DejaVuSans-107"/>
      </defs>
      <g transform="translate(511.259375 680.640625)rotate(-90)scale(0.1 -0.1)">
       <use xlink:href="#DejaVuSans-83"/>
       <use x="63.476562" xlink:href="#DejaVuSans-117"/>
       <use x="126.855469" xlink:href="#DejaVuSans-122"/>
       <use x="179.345703" xlink:href="#DejaVuSans-117"/>
       <use x="242.724609" xlink:href="#DejaVuSans-107"/>
       <use x="300.634766" xlink:href="#DejaVuSans-105"/>
      </g>
     </g>
    </g>
    <g id="xtick_9">
     <g id="line2d_9">
      <g>
       <use style="stroke:#000000;stroke-width:0.8;" x="564.3" xlink:href="#m08845c842c" y="640.8"/>
      </g>
     </g>
     <g id="text_9">
      <!-- MG -->
      <defs>
       <path d="M 59.515625 10.40625 
L 59.515625 29.984375 
L 43.40625 29.984375 
L 43.40625 38.09375 
L 69.28125 38.09375 
L 69.28125 6.78125 
Q 63.578125 2.734375 56.6875 0.65625 
Q 49.8125 -1.421875 42 -1.421875 
Q 24.90625 -1.421875 15.25 8.5625 
Q 5.609375 18.5625 5.609375 36.375 
Q 5.609375 54.25 15.25 64.234375 
Q 24.90625 74.21875 42 74.21875 
Q 49.125 74.21875 55.546875 72.453125 
Q 61.96875 70.703125 67.390625 67.28125 
L 67.390625 56.78125 
Q 61.921875 61.421875 55.765625 63.765625 
Q 49.609375 66.109375 42.828125 66.109375 
Q 29.4375 66.109375 22.71875 58.640625 
Q 16.015625 51.171875 16.015625 36.375 
Q 16.015625 21.625 22.71875 14.15625 
Q 29.4375 6.6875 42.828125 6.6875 
Q 48.046875 6.6875 52.140625 7.59375 
Q 56.25 8.5 59.515625 10.40625 
z
" id="DejaVuSans-71"/>
      </defs>
      <g transform="translate(567.059375 664.176563)rotate(-90)scale(0.1 -0.1)">
       <use xlink:href="#DejaVuSans-77"/>
       <use x="86.279297" xlink:href="#DejaVuSans-71"/>
      </g>
     </g>
    </g>
    <g id="xtick_10">
     <g id="line2d_10">
      <g>
       <use style="stroke:#000000;stroke-width:0.8;" x="620.1" xlink:href="#m08845c842c" y="640.8"/>
      </g>
     </g>
     <g id="text_10">
      <!-- Chevrolet -->
      <defs>
       <path d="M 64.40625 67.28125 
L 64.40625 56.890625 
Q 59.421875 61.53125 53.78125 63.8125 
Q 48.140625 66.109375 41.796875 66.109375 
Q 29.296875 66.109375 22.65625 58.46875 
Q 16.015625 50.828125 16.015625 36.375 
Q 16.015625 21.96875 22.65625 14.328125 
Q 29.296875 6.6875 41.796875 6.6875 
Q 48.140625 6.6875 53.78125 8.984375 
Q 59.421875 11.28125 64.40625 15.921875 
L 64.40625 5.609375 
Q 59.234375 2.09375 53.4375 0.328125 
Q 47.65625 -1.421875 41.21875 -1.421875 
Q 24.65625 -1.421875 15.125 8.703125 
Q 5.609375 18.84375 5.609375 36.375 
Q 5.609375 53.953125 15.125 64.078125 
Q 24.65625 74.21875 41.21875 74.21875 
Q 47.75 74.21875 53.53125 72.484375 
Q 59.328125 70.75 64.40625 67.28125 
z
" id="DejaVuSans-67"/>
       <path d="M 56.203125 29.59375 
L 56.203125 25.203125 
L 14.890625 25.203125 
Q 15.484375 15.921875 20.484375 11.0625 
Q 25.484375 6.203125 34.421875 6.203125 
Q 39.59375 6.203125 44.453125 7.46875 
Q 49.3125 8.734375 54.109375 11.28125 
L 54.109375 2.78125 
Q 49.265625 0.734375 44.1875 -0.34375 
Q 39.109375 -1.421875 33.890625 -1.421875 
Q 20.796875 -1.421875 13.15625 6.1875 
Q 5.515625 13.8125 5.515625 26.8125 
Q 5.515625 40.234375 12.765625 48.109375 
Q 20.015625 56 32.328125 56 
Q 43.359375 56 49.78125 48.890625 
Q 56.203125 41.796875 56.203125 29.59375 
z
M 47.21875 32.234375 
Q 47.125 39.59375 43.09375 43.984375 
Q 39.0625 48.390625 32.421875 48.390625 
Q 24.90625 48.390625 20.390625 44.140625 
Q 15.875 39.890625 15.1875 32.171875 
z
" id="DejaVuSans-101"/>
       <path d="M 2.984375 54.6875 
L 12.5 54.6875 
L 29.59375 8.796875 
L 46.6875 54.6875 
L 56.203125 54.6875 
L 35.6875 0 
L 23.484375 0 
z
" id="DejaVuSans-118"/>
       <path d="M 9.421875 75.984375 
L 18.40625 75.984375 
L 18.40625 0 
L 9.421875 0 
z
" id="DejaVuSans-108"/>
      </defs>
      <g transform="translate(622.859375 696.270313)rotate(-90)scale(0.1 -0.1)">
       <use xlink:href="#DejaVuSans-67"/>
       <use x="69.824219" xlink:href="#DejaVuSans-104"/>
       <use x="133.203125" xlink:href="#DejaVuSans-101"/>
       <use x="194.726562" xlink:href="#DejaVuSans-118"/>
       <use x="253.90625" xlink:href="#DejaVuSans-114"/>
       <use x="294.988281" xlink:href="#DejaVuSans-111"/>
       <use x="356.169922" xlink:href="#DejaVuSans-108"/>
       <use x="383.953125" xlink:href="#DejaVuSans-101"/>
       <use x="445.476562" xlink:href="#DejaVuSans-116"/>
      </g>
     </g>
    </g>
    <g id="text_11">
     <!-- ยี่ห้อรถยนต์ -->
     <defs>
      <path d="M 28.078125 42.484375 
L 28.5625 42.96875 
L 32.46875 42.96875 
L 32.953125 42.484375 
L 32.953125 14.65625 
Q 32.953125 11.625 31.8125 8.9375 
Q 30.671875 6.25 28.6875 4.265625 
Q 26.703125 2.296875 24.015625 1.140625 
Q 21.34375 0 18.3125 0 
Q 15.28125 0 12.59375 1.140625 
Q 9.90625 2.296875 7.921875 4.265625 
Q 5.953125 6.25 4.796875 8.9375 
Q 3.65625 11.625 3.65625 14.65625 
Q 3.65625 18.0625 5.296875 20.546875 
Q 6.9375 23.046875 9.515625 24.46875 
Q 6.6875 25.875 5.171875 28.234375 
Q 3.65625 30.609375 3.65625 33.6875 
Q 3.65625 35.59375 4.390625 37.296875 
Q 5.125 39.015625 6.375 40.25 
Q 7.625 41.5 9.328125 42.234375 
Q 11.03125 42.96875 12.9375 42.96875 
Q 14.40625 42.96875 15.546875 42.703125 
Q 16.703125 42.4375 17.828125 41.890625 
L 17.828125 37.015625 
L 17.328125 37.015625 
Q 16.15625 37.59375 15.234375 37.84375 
Q 14.3125 38.09375 12.9375 38.09375 
Q 11.078125 38.09375 9.8125 36.8125 
Q 8.546875 35.546875 8.546875 33.6875 
Q 8.546875 32.078125 9.25 30.828125 
Q 9.96875 29.59375 11.203125 28.703125 
Q 12.453125 27.828125 14.15625 27.359375 
Q 15.875 26.90625 17.875 26.859375 
L 18.3125 26.46875 
L 18.3125 21.96875 
Q 16.265625 21.96875 14.484375 21.578125 
Q 12.703125 21.1875 11.375 20.328125 
Q 10.0625 19.484375 9.296875 18.09375 
Q 8.546875 16.703125 8.546875 14.65625 
Q 8.546875 12.59375 9.296875 10.8125 
Q 10.0625 9.03125 11.375 7.703125 
Q 12.703125 6.390625 14.484375 5.640625 
Q 16.265625 4.890625 18.3125 4.890625 
Q 20.359375 4.890625 22.140625 5.640625 
Q 23.921875 6.390625 25.234375 7.703125 
Q 26.5625 9.03125 27.3125 10.8125 
Q 28.078125 12.59375 28.078125 14.65625 
z
" id="Circular-3618"/>
      <path d="M -9.765625 58.109375 
L -9.28125 58.59375 
L -5.375 58.59375 
L -4.890625 58.109375 
L -4.890625 50.78125 
L -7.078125 47.40625 
L -7.515625 47.40625 
Q -8.5 48.1875 -9.8125 48.828125 
Q -11.140625 49.46875 -12.640625 49.921875 
Q -14.15625 50.390625 -15.6875 50.625 
Q -17.234375 50.875 -18.5625 50.875 
Q -19.875 50.875 -21.40625 50.625 
Q -22.953125 50.390625 -24.46875 49.921875 
Q -25.984375 49.46875 -27.3125 48.828125 
Q -28.65625 48.1875 -29.59375 47.40625 
L -30.03125 47.40625 
L -32.234375 50.78125 
L -32.234375 51.265625 
Q -30.953125 52.34375 -29.34375 53.1875 
Q -27.734375 54.046875 -25.953125 54.609375 
Q -24.171875 55.171875 -22.28125 55.46875 
Q -20.40625 55.765625 -18.5625 55.765625 
Q -16.359375 55.765625 -14.078125 55.34375 
Q -11.8125 54.9375 -9.765625 54.109375 
z
" id="Circular-3637"/>
      <path d="M -9.28125 71.78125 
L -5.375 71.78125 
L -4.890625 71.296875 
L -4.890625 61.53125 
L -5.375 61.03125 
L -9.28125 61.03125 
L -9.765625 61.53125 
L -9.765625 71.296875 
z
" id="Circular-3656"/>
      <path d="M 10.5 0.484375 
L 10.015625 0 
L 6.109375 0 
L 5.609375 0.484375 
L 5.609375 35.640625 
Q 5.609375 36.671875 4.90625 37.375 
Q 4.203125 38.09375 3.171875 38.09375 
L 2.828125 38.03125 
L 2.34375 38.03125 
L 2.34375 42.78125 
Q 2.828125 42.96875 3.171875 42.96875 
Q 4.6875 42.96875 6.03125 42.484375 
Q 7.375 42 8.34375 41.15625 
Q 9.328125 40.328125 9.90625 39.15625 
Q 10.5 37.984375 10.5 36.625 
L 10.5 26.859375 
Q 14.703125 26.859375 18.046875 27.640625 
Q 21.390625 28.421875 23.734375 30.171875 
Q 26.078125 31.9375 27.3125 34.78125 
Q 28.5625 37.640625 28.5625 41.75 
L 29.046875 42.234375 
L 33.453125 42.96875 
Q 33.453125 39.453125 32.890625 36.765625 
Q 32.328125 34.078125 31.25 32 
Q 30.171875 29.9375 28.6875 28.375 
Q 27.203125 26.8125 25.296875 25.59375 
Q 27.046875 25.34375 28.78125 24.484375 
Q 30.515625 23.640625 31.875 22.234375 
Q 33.25 20.84375 34.078125 18.9375 
Q 34.90625 17.046875 34.90625 14.65625 
L 34.90625 0.484375 
L 34.421875 0 
L 30.515625 0 
L 30.03125 0.484375 
L 30.03125 14.65625 
Q 30.03125 16.3125 29.203125 17.75 
Q 28.375 19.1875 27 20.3125 
Q 25.640625 21.4375 23.90625 22.21875 
Q 22.171875 23 20.40625 23.296875 
Q 18.171875 22.609375 15.703125 22.28125 
Q 13.234375 21.96875 10.5 21.96875 
z
" id="Circular-3627"/>
      <path d="M -4.890625 65.4375 
L -4.34375 64.890625 
L -4.34375 61.578125 
L -4.890625 61.03125 
L -14.65625 61.03125 
Q -16.703125 61.03125 -18.109375 62.453125 
Q -19.53125 63.875 -19.53125 65.921875 
Q -19.53125 66.3125 -19.828125 66.421875 
Q -20.125 66.546875 -20.515625 66.546875 
Q -20.75 66.546875 -21.0625 66.46875 
Q -21.390625 66.40625 -21.734375 66.21875 
L -21.96875 66.265625 
L -21.96875 70.3125 
Q -21.4375 70.5625 -20.65625 70.671875 
Q -19.875 70.796875 -19.53125 70.796875 
Q -17.484375 70.796875 -16.3125 69.375 
Q -15.140625 67.96875 -15.140625 65.921875 
Q -15.140625 65.4375 -14.65625 65.4375 
z
" id="Circular-3657"/>
      <path d="M 18.0625 26.859375 
Q 19.046875 26.859375 19.875 26.703125 
Q 20.703125 26.5625 21.390625 26.3125 
L 21.390625 21.578125 
L 20.90625 21.578125 
Q 20.3125 21.828125 19.59375 21.890625 
Q 18.890625 21.96875 18.0625 21.96875 
Q 16.015625 21.96875 14.234375 21.578125 
Q 12.453125 21.1875 11.125 20.328125 
Q 9.8125 19.484375 9.046875 18.09375 
Q 8.296875 16.703125 8.296875 14.65625 
Q 8.296875 12.59375 9.046875 10.8125 
Q 9.8125 9.03125 11.125 7.703125 
Q 12.453125 6.390625 14.234375 5.640625 
Q 16.015625 4.890625 18.0625 4.890625 
Q 20.125 4.890625 21.90625 5.640625 
Q 23.6875 6.390625 25 7.703125 
Q 26.3125 9.03125 27.0625 10.8125 
Q 27.828125 12.59375 27.828125 14.65625 
L 27.828125 28.328125 
Q 27.828125 30.375 27.0625 32.15625 
Q 26.3125 33.9375 25 35.25 
Q 23.6875 36.578125 21.90625 37.328125 
Q 20.125 38.09375 18.0625 38.09375 
Q 16.40625 38.09375 14.890625 37.578125 
Q 13.375 37.0625 12.15625 36.125 
Q 10.9375 35.203125 10.0625 33.90625 
Q 9.1875 32.625 8.734375 31.109375 
L 8.34375 30.90625 
Q 8.296875 30.90625 7.65625 31.171875 
Q 7.03125 31.453125 6.203125 31.78125 
Q 5.28125 32.171875 4.109375 32.71875 
Q 4.78125 34.96875 6.125 36.84375 
Q 7.46875 38.71875 9.296875 40.078125 
Q 11.140625 41.453125 13.375 42.203125 
Q 15.625 42.96875 18.0625 42.96875 
Q 21.09375 42.96875 23.78125 41.8125 
Q 26.46875 40.671875 28.4375 38.6875 
Q 30.421875 36.71875 31.5625 34.03125 
Q 32.71875 31.34375 32.71875 28.328125 
L 32.71875 14.65625 
Q 32.71875 11.625 31.5625 8.9375 
Q 30.421875 6.25 28.4375 4.265625 
Q 26.46875 2.296875 23.78125 1.140625 
Q 21.09375 0 18.0625 0 
Q 15.046875 0 12.359375 1.140625 
Q 9.671875 2.296875 7.6875 4.265625 
Q 5.71875 6.25 4.5625 8.9375 
Q 3.421875 11.625 3.421875 14.65625 
Q 3.421875 17.671875 4.5625 19.96875 
Q 5.71875 22.265625 7.6875 23.796875 
Q 9.671875 25.34375 12.359375 26.09375 
Q 15.046875 26.859375 18.0625 26.859375 
z
" id="Circular-3629"/>
      <path d="M 14.59375 38.09375 
Q 13.1875 38.09375 11.9375 37.546875 
Q 10.6875 37.015625 9.765625 36.078125 
Q 8.84375 35.15625 8.296875 33.90625 
Q 7.765625 32.671875 7.765625 31.25 
Q 7.765625 29.828125 8.296875 28.578125 
Q 8.84375 27.34375 9.765625 26.40625 
Q 10.6875 25.484375 11.9375 24.953125 
Q 13.1875 24.421875 14.59375 24.421875 
L 19.96875 24.421875 
Q 22.515625 24.421875 24.734375 23.46875 
Q 26.953125 22.515625 28.609375 20.84375 
Q 30.28125 19.1875 31.21875 16.96875 
Q 32.171875 14.75 32.171875 12.203125 
Q 32.171875 9.671875 31.21875 7.4375 
Q 30.28125 5.21875 28.609375 3.5625 
Q 26.953125 1.90625 24.734375 0.953125 
Q 22.515625 0 19.96875 0 
Q 18.75 0 17.546875 0.015625 
Q 16.359375 0.046875 15.015625 0.125 
Q 13.671875 0.203125 12.125 0.359375 
Q 10.59375 0.53125 8.796875 0.828125 
L 8.796875 5.671875 
L 9.1875 5.8125 
Q 10.640625 5.46875 12.15625 5.265625 
Q 13.671875 5.078125 15.078125 5 
Q 16.5 4.9375 17.765625 4.90625 
Q 19.046875 4.890625 19.96875 4.890625 
Q 21.484375 4.890625 22.828125 5.46875 
Q 24.171875 6.0625 25.140625 7.03125 
Q 26.125 8.015625 26.703125 9.34375 
Q 27.296875 10.6875 27.296875 12.203125 
Q 27.296875 13.71875 26.703125 15.0625 
Q 26.125 16.40625 25.140625 17.375 
Q 24.171875 18.359375 22.828125 18.9375 
Q 21.484375 19.53125 19.96875 19.53125 
L 14.59375 19.53125 
Q 12.15625 19.53125 10.03125 20.453125 
Q 7.90625 21.390625 6.3125 22.96875 
Q 4.734375 24.5625 3.796875 26.6875 
Q 2.875 28.8125 2.875 31.25 
Q 2.875 33.640625 3.796875 35.78125 
Q 4.734375 37.9375 6.3125 39.546875 
Q 7.90625 41.15625 10.03125 42.0625 
Q 12.15625 42.96875 14.59375 42.96875 
Q 16.796875 42.921875 18.703125 42.8125 
Q 20.609375 42.71875 22.390625 42.546875 
Q 24.171875 42.390625 25.875 42.140625 
Q 27.59375 41.890625 29.4375 41.609375 
L 29.4375 36.8125 
L 29.046875 36.625 
Q 27.09375 36.96875 25.328125 37.25 
Q 23.578125 37.546875 21.84375 37.71875 
Q 20.125 37.890625 18.359375 37.984375 
Q 16.609375 38.09375 14.59375 38.09375 
z
" id="Circular-3619"/>
      <path d="M 29.296875 0.484375 
L 29.296875 28.328125 
Q 29.296875 30.375 28.53125 32.15625 
Q 27.78125 33.9375 26.453125 35.25 
Q 25.140625 36.578125 23.359375 37.328125 
Q 21.578125 38.09375 19.53125 38.09375 
Q 15.484375 38.09375 12.96875 36.890625 
Q 10.453125 35.6875 8.796875 32.90625 
Q 9.125 31.984375 9.34375 30.90625 
Q 9.578125 29.828125 9.640625 28.703125 
Q 9.71875 27.59375 9.734375 26.46875 
Q 9.765625 25.34375 9.765625 24.421875 
L 9.765625 7.328125 
Q 9.765625 6.296875 10.46875 5.59375 
Q 11.1875 4.890625 12.203125 4.890625 
Q 13.03125 4.890625 13.734375 4.953125 
Q 14.453125 5.03125 15.046875 5.28125 
L 15.53125 5.28125 
L 15.53125 0.53125 
Q 14.84375 0.296875 14.015625 0.140625 
Q 13.1875 0 12.203125 0 
Q 10.6875 0 9.34375 0.578125 
Q 8.015625 1.171875 7.03125 2.140625 
Q 6.0625 3.125 5.46875 4.46875 
Q 4.890625 5.8125 4.890625 7.328125 
L 4.890625 24.421875 
Q 4.890625 29.25 3.421875 32.90625 
Q 5.171875 37.546875 9.296875 40.25 
Q 13.421875 42.96875 19.53125 42.96875 
Q 22.5625 42.96875 25.25 41.8125 
Q 27.9375 40.671875 29.90625 38.6875 
Q 31.890625 36.71875 33.03125 34.03125 
Q 34.1875 31.34375 34.1875 28.328125 
L 34.1875 0.484375 
L 33.6875 0 
L 29.78125 0 
z
" id="Circular-3606"/>
      <path d="M 34.90625 7.328125 
Q 34.90625 6.296875 35.609375 5.59375 
Q 36.328125 4.890625 37.359375 4.890625 
L 37.703125 4.9375 
L 38.1875 4.9375 
L 38.1875 0.203125 
Q 37.703125 0 37.359375 0 
Q 35.84375 0 34.5 0.453125 
Q 33.15625 0.921875 32.171875 1.734375 
Q 31.203125 2.546875 30.609375 3.65625 
Q 30.03125 4.78125 30.03125 6.0625 
Q 28.328125 3.171875 25.828125 1.578125 
Q 23.34375 0 20.265625 0 
Q 16.9375 0 14.25 1.140625 
Q 11.578125 2.296875 9.640625 4.265625 
Q 7.71875 6.25 6.65625 8.9375 
Q 5.609375 11.625 5.609375 14.65625 
L 5.609375 35.640625 
Q 5.609375 36.671875 4.90625 37.375 
Q 4.203125 38.09375 3.171875 38.09375 
L 2.828125 38.03125 
L 2.34375 38.03125 
L 2.34375 42.78125 
Q 2.828125 42.96875 3.171875 42.96875 
Q 4.6875 42.96875 6.03125 42.484375 
Q 7.375 42 8.34375 41.15625 
Q 9.328125 40.328125 9.90625 39.15625 
Q 10.5 37.984375 10.5 36.625 
L 10.5 14.65625 
Q 10.5 12.59375 11.25 10.8125 
Q 12.015625 9.03125 13.328125 7.703125 
Q 14.65625 6.390625 16.4375 5.640625 
Q 18.21875 4.890625 20.265625 4.890625 
Q 22.3125 4.890625 24.09375 5.640625 
Q 25.875 6.390625 27.1875 7.703125 
Q 28.515625 9.03125 29.265625 10.8125 
Q 30.03125 12.59375 30.03125 14.65625 
L 30.03125 42.484375 
L 30.515625 42.96875 
L 34.421875 42.96875 
L 34.90625 42.484375 
z
" id="Circular-3609"/>
      <path d="M 31.15625 0.484375 
L 31.15625 34.421875 
Q 31.15625 35.984375 30.21875 37.03125 
Q 29.296875 38.09375 27.734375 38.09375 
Q 26.171875 38.09375 25 37.03125 
Q 23.828125 35.984375 23.828125 34.421875 
L 23.828125 32.03125 
L 23.53125 31.734375 
L 19.234375 31.734375 
L 18.953125 32.03125 
L 18.953125 34.421875 
Q 18.953125 35.984375 18.015625 37.03125 
Q 17.09375 38.09375 15.53125 38.09375 
Q 13.8125 38.09375 12.4375 36.75 
Q 11.078125 35.40625 10.125 33.125 
Q 9.1875 30.859375 8.6875 27.78125 
Q 8.203125 24.703125 8.203125 21.296875 
Q 8.203125 17.828125 8.8125 14.84375 
Q 9.421875 11.859375 10.859375 9.640625 
Q 12.3125 7.421875 14.625 6.15625 
Q 16.9375 4.890625 20.40625 4.890625 
Q 21.78125 4.890625 22.796875 5.15625 
Q 23.828125 5.421875 24.8125 5.953125 
L 25.296875 5.953125 
L 25.296875 1.171875 
Q 23.25 0 20.40625 0 
Q 15.96875 0 12.734375 1.65625 
Q 9.515625 3.328125 7.421875 6.203125 
Q 5.328125 9.078125 4.328125 12.953125 
Q 3.328125 16.84375 3.328125 21.296875 
Q 3.328125 25.734375 4.109375 29.6875 
Q 4.890625 33.640625 6.421875 36.59375 
Q 7.953125 39.546875 10.21875 41.25 
Q 12.5 42.96875 15.53125 42.96875 
Q 17.328125 42.96875 18.75 42.203125 
Q 20.171875 41.453125 21.390625 39.546875 
Q 22.359375 41.109375 24.140625 42.03125 
Q 25.921875 42.96875 27.734375 42.96875 
Q 29.5 42.96875 31.03125 42.3125 
Q 32.5625 41.65625 33.65625 40.484375 
Q 34.765625 39.3125 35.390625 37.75 
Q 36.03125 36.1875 36.03125 34.421875 
L 36.03125 0.484375 
L 35.546875 0 
L 31.640625 0 
z
" id="Circular-3605"/>
      <path d="M -13.421875 62.75 
Q -14.109375 62.75 -14.625 62.234375 
Q -15.140625 61.71875 -15.140625 61.03125 
Q -15.140625 60.75 -15.046875 60.546875 
L -15.140625 60.25 
L -19.234375 59.375 
Q -19.53125 60.25 -19.53125 61.03125 
Q -19.53125 62.3125 -19.046875 63.40625 
Q -18.5625 64.5 -17.71875 65.328125 
Q -16.890625 66.15625 -15.796875 66.640625 
Q -14.703125 67.140625 -13.421875 67.140625 
L -2.9375 67.140625 
L -2.4375 66.65625 
L -2.4375 63.234375 
L -2.9375 62.75 
z
" id="Circular-3660"/>
     </defs>
     <g transform="translate(338.201563 713.84375)scale(0.2 -0.2)">
      <use xlink:href="#Circular-3618"/>
      <use x="37.841797" xlink:href="#Circular-3637"/>
      <use x="37.841797" xlink:href="#Circular-3656"/>
      <use x="37.841797" xlink:href="#Circular-3627"/>
      <use x="77.636719" xlink:href="#Circular-3657"/>
      <use x="77.636719" xlink:href="#Circular-3629"/>
      <use x="114.257812" xlink:href="#Circular-3619"/>
      <use x="149.609375" xlink:href="#Circular-3606"/>
      <use x="188.671875" xlink:href="#Circular-3618"/>
      <use x="226.513672" xlink:href="#Circular-3609"/>
      <use x="267.041016" xlink:href="#Circular-3605"/>
      <use x="307.958984" xlink:href="#Circular-3660"/>
     </g>
    </g>
   </g>
   <g id="matplotlib.axis_2">
    <g id="ytick_1">
     <g id="line2d_11">
      <defs>
       <path d="M 0 0 
L -3.5 0 
" id="mf84c4ba337" style="stroke:#000000;stroke-width:0.8;"/>
      </defs>
      <g>
       <use style="stroke:#000000;stroke-width:0.8;" x="90" xlink:href="#mf84c4ba337" y="640.8"/>
      </g>
     </g>
     <g id="text_12">
      <!-- 0 -->
      <defs>
       <path d="M 31.78125 66.40625 
Q 24.171875 66.40625 20.328125 58.90625 
Q 16.5 51.421875 16.5 36.375 
Q 16.5 21.390625 20.328125 13.890625 
Q 24.171875 6.390625 31.78125 6.390625 
Q 39.453125 6.390625 43.28125 13.890625 
Q 47.125 21.390625 47.125 36.375 
Q 47.125 51.421875 43.28125 58.90625 
Q 39.453125 66.40625 31.78125 66.40625 
z
M 31.78125 74.21875 
Q 44.046875 74.21875 50.515625 64.515625 
Q 56.984375 54.828125 56.984375 36.375 
Q 56.984375 17.96875 50.515625 8.265625 
Q 44.046875 -1.421875 31.78125 -1.421875 
Q 19.53125 -1.421875 13.0625 8.265625 
Q 6.59375 17.96875 6.59375 36.375 
Q 6.59375 54.828125 13.0625 64.515625 
Q 19.53125 74.21875 31.78125 74.21875 
z
" id="DejaVuSans-48"/>
      </defs>
      <g transform="translate(76.6375 644.599219)scale(0.1 -0.1)">
       <use xlink:href="#DejaVuSans-48"/>
      </g>
     </g>
    </g>
    <g id="ytick_2">
     <g id="line2d_12">
      <g>
       <use style="stroke:#000000;stroke-width:0.8;" x="90" xlink:href="#mf84c4ba337" y="575.861741"/>
      </g>
     </g>
     <g id="text_13">
      <!-- 2500 -->
      <defs>
       <path d="M 19.1875 8.296875 
L 53.609375 8.296875 
L 53.609375 0 
L 7.328125 0 
L 7.328125 8.296875 
Q 12.9375 14.109375 22.625 23.890625 
Q 32.328125 33.6875 34.8125 36.53125 
Q 39.546875 41.84375 41.421875 45.53125 
Q 43.3125 49.21875 43.3125 52.78125 
Q 43.3125 58.59375 39.234375 62.25 
Q 35.15625 65.921875 28.609375 65.921875 
Q 23.96875 65.921875 18.8125 64.3125 
Q 13.671875 62.703125 7.8125 59.421875 
L 7.8125 69.390625 
Q 13.765625 71.78125 18.9375 73 
Q 24.125 74.21875 28.421875 74.21875 
Q 39.75 74.21875 46.484375 68.546875 
Q 53.21875 62.890625 53.21875 53.421875 
Q 53.21875 48.921875 51.53125 44.890625 
Q 49.859375 40.875 45.40625 35.40625 
Q 44.1875 33.984375 37.640625 27.21875 
Q 31.109375 20.453125 19.1875 8.296875 
z
" id="DejaVuSans-50"/>
       <path d="M 10.796875 72.90625 
L 49.515625 72.90625 
L 49.515625 64.59375 
L 19.828125 64.59375 
L 19.828125 46.734375 
Q 21.96875 47.46875 24.109375 47.828125 
Q 26.265625 48.1875 28.421875 48.1875 
Q 40.625 48.1875 47.75 41.5 
Q 54.890625 34.8125 54.890625 23.390625 
Q 54.890625 11.625 47.5625 5.09375 
Q 40.234375 -1.421875 26.90625 -1.421875 
Q 22.3125 -1.421875 17.546875 -0.640625 
Q 12.796875 0.140625 7.71875 1.703125 
L 7.71875 11.625 
Q 12.109375 9.234375 16.796875 8.0625 
Q 21.484375 6.890625 26.703125 6.890625 
Q 35.15625 6.890625 40.078125 11.328125 
Q 45.015625 15.765625 45.015625 23.390625 
Q 45.015625 31 40.078125 35.4375 
Q 35.15625 39.890625 26.703125 39.890625 
Q 22.75 39.890625 18.8125 39.015625 
Q 14.890625 38.140625 10.796875 36.28125 
z
" id="DejaVuSans-53"/>
      </defs>
      <g transform="translate(57.55 579.660959)scale(0.1 -0.1)">
       <use xlink:href="#DejaVuSans-50"/>
       <use x="63.623047" xlink:href="#DejaVuSans-53"/>
       <use x="127.246094" xlink:href="#DejaVuSans-48"/>
       <use x="190.869141" xlink:href="#DejaVuSans-48"/>
      </g>
     </g>
    </g>
    <g id="ytick_3">
     <g id="line2d_13">
      <g>
       <use style="stroke:#000000;stroke-width:0.8;" x="90" xlink:href="#mf84c4ba337" y="510.923481"/>
      </g>
     </g>
     <g id="text_14">
      <!-- 5000 -->
      <g transform="translate(57.55 514.7227)scale(0.1 -0.1)">
       <use xlink:href="#DejaVuSans-53"/>
       <use x="63.623047" xlink:href="#DejaVuSans-48"/>
       <use x="127.246094" xlink:href="#DejaVuSans-48"/>
       <use x="190.869141" xlink:href="#DejaVuSans-48"/>
      </g>
     </g>
    </g>
    <g id="ytick_4">
     <g id="line2d_14">
      <g>
       <use style="stroke:#000000;stroke-width:0.8;" x="90" xlink:href="#mf84c4ba337" y="445.985222"/>
      </g>
     </g>
     <g id="text_15">
      <!-- 7500 -->
      <defs>
       <path d="M 8.203125 72.90625 
L 55.078125 72.90625 
L 55.078125 68.703125 
L 28.609375 0 
L 18.3125 0 
L 43.21875 64.59375 
L 8.203125 64.59375 
z
" id="DejaVuSans-55"/>
      </defs>
      <g transform="translate(57.55 449.78444)scale(0.1 -0.1)">
       <use xlink:href="#DejaVuSans-55"/>
       <use x="63.623047" xlink:href="#DejaVuSans-53"/>
       <use x="127.246094" xlink:href="#DejaVuSans-48"/>
       <use x="190.869141" xlink:href="#DejaVuSans-48"/>
      </g>
     </g>
    </g>
    <g id="ytick_5">
     <g id="line2d_15">
      <g>
       <use style="stroke:#000000;stroke-width:0.8;" x="90" xlink:href="#mf84c4ba337" y="381.046962"/>
      </g>
     </g>
     <g id="text_16">
      <!-- 10000 -->
      <defs>
       <path d="M 12.40625 8.296875 
L 28.515625 8.296875 
L 28.515625 63.921875 
L 10.984375 60.40625 
L 10.984375 69.390625 
L 28.421875 72.90625 
L 38.28125 72.90625 
L 38.28125 8.296875 
L 54.390625 8.296875 
L 54.390625 0 
L 12.40625 0 
z
" id="DejaVuSans-49"/>
      </defs>
      <g transform="translate(51.1875 384.846181)scale(0.1 -0.1)">
       <use xlink:href="#DejaVuSans-49"/>
       <use x="63.623047" xlink:href="#DejaVuSans-48"/>
       <use x="127.246094" xlink:href="#DejaVuSans-48"/>
       <use x="190.869141" xlink:href="#DejaVuSans-48"/>
       <use x="254.492188" xlink:href="#DejaVuSans-48"/>
      </g>
     </g>
    </g>
    <g id="ytick_6">
     <g id="line2d_16">
      <g>
       <use style="stroke:#000000;stroke-width:0.8;" x="90" xlink:href="#mf84c4ba337" y="316.108703"/>
      </g>
     </g>
     <g id="text_17">
      <!-- 12500 -->
      <g transform="translate(51.1875 319.907921)scale(0.1 -0.1)">
       <use xlink:href="#DejaVuSans-49"/>
       <use x="63.623047" xlink:href="#DejaVuSans-50"/>
       <use x="127.246094" xlink:href="#DejaVuSans-53"/>
       <use x="190.869141" xlink:href="#DejaVuSans-48"/>
       <use x="254.492188" xlink:href="#DejaVuSans-48"/>
      </g>
     </g>
    </g>
    <g id="ytick_7">
     <g id="line2d_17">
      <g>
       <use style="stroke:#000000;stroke-width:0.8;" x="90" xlink:href="#mf84c4ba337" y="251.170443"/>
      </g>
     </g>
     <g id="text_18">
      <!-- 15000 -->
      <g transform="translate(51.1875 254.969662)scale(0.1 -0.1)">
       <use xlink:href="#DejaVuSans-49"/>
       <use x="63.623047" xlink:href="#DejaVuSans-53"/>
       <use x="127.246094" xlink:href="#DejaVuSans-48"/>
       <use x="190.869141" xlink:href="#DejaVuSans-48"/>
       <use x="254.492188" xlink:href="#DejaVuSans-48"/>
      </g>
     </g>
    </g>
    <g id="ytick_8">
     <g id="line2d_18">
      <g>
       <use style="stroke:#000000;stroke-width:0.8;" x="90" xlink:href="#mf84c4ba337" y="186.232184"/>
      </g>
     </g>
     <g id="text_19">
      <!-- 17500 -->
      <g transform="translate(51.1875 190.031403)scale(0.1 -0.1)">
       <use xlink:href="#DejaVuSans-49"/>
       <use x="63.623047" xlink:href="#DejaVuSans-55"/>
       <use x="127.246094" xlink:href="#DejaVuSans-53"/>
       <use x="190.869141" xlink:href="#DejaVuSans-48"/>
       <use x="254.492188" xlink:href="#DejaVuSans-48"/>
      </g>
     </g>
    </g>
    <g id="ytick_9">
     <g id="line2d_19">
      <g>
       <use style="stroke:#000000;stroke-width:0.8;" x="90" xlink:href="#mf84c4ba337" y="121.293924"/>
      </g>
     </g>
     <g id="text_20">
      <!-- 20000 -->
      <g transform="translate(51.1875 125.093143)scale(0.1 -0.1)">
       <use xlink:href="#DejaVuSans-50"/>
       <use x="63.623047" xlink:href="#DejaVuSans-48"/>
       <use x="127.246094" xlink:href="#DejaVuSans-48"/>
       <use x="190.869141" xlink:href="#DejaVuSans-48"/>
       <use x="254.492188" xlink:href="#DejaVuSans-48"/>
      </g>
     </g>
    </g>
    <g id="text_21">
     <!-- จำนวนยอดขายรถยนต์(คัน) -->
     <defs>
      <path d="M 9.234375 16.109375 
Q 8.84375 16.109375 8.453125 16.03125 
Q 8.0625 15.96875 7.71875 15.828125 
L 7.234375 15.828125 
L 7.234375 20.5625 
Q 7.515625 20.703125 7.953125 20.84375 
Q 8.40625 21 9.234375 21 
Q 10.9375 21 12.296875 20.40625 
Q 13.671875 19.828125 14.625 18.84375 
Q 15.578125 17.875 16.0625 16.53125 
Q 16.546875 15.1875 16.546875 13.671875 
L 16.546875 9.765625 
Q 16.546875 7.71875 17.96875 6.296875 
Q 19.390625 4.890625 21.4375 4.890625 
Q 23.484375 4.890625 24.890625 6.296875 
Q 26.3125 7.71875 26.3125 9.765625 
L 26.3125 28.328125 
Q 26.3125 30.375 25.5625 32.15625 
Q 24.8125 33.9375 23.484375 35.25 
Q 22.171875 36.578125 20.390625 37.328125 
Q 18.609375 38.09375 16.546875 38.09375 
Q 14.703125 38.09375 13.0625 37.453125 
Q 11.421875 36.8125 10.125 35.71875 
Q 8.84375 34.625 8 33.109375 
Q 7.171875 31.59375 6.890625 29.828125 
L 6.390625 29.734375 
L 2.25 31.546875 
Q 2.78125 33.984375 4.09375 36.078125 
Q 5.421875 38.1875 7.328125 39.71875 
Q 9.234375 41.265625 11.578125 42.109375 
Q 13.921875 42.96875 16.546875 42.96875 
Q 19.578125 42.96875 22.265625 41.8125 
Q 24.953125 40.671875 26.921875 38.6875 
Q 28.90625 36.71875 30.046875 34.03125 
Q 31.203125 31.34375 31.203125 28.328125 
L 31.203125 9.765625 
Q 31.203125 7.765625 30.421875 5.984375 
Q 29.640625 4.203125 28.3125 2.875 
Q 27 1.5625 25.21875 0.78125 
Q 23.4375 0 21.4375 0 
Q 19.4375 0 17.65625 0.78125 
Q 15.875 1.5625 14.546875 2.875 
Q 13.234375 4.203125 12.453125 5.984375 
Q 11.671875 7.765625 11.671875 9.765625 
L 11.671875 13.671875 
Q 11.671875 14.703125 10.953125 15.40625 
Q 10.25 16.109375 9.234375 16.109375 
z
" id="Circular-3592"/>
      <path d="M 1.21875 38.03125 
Q 3.265625 40.328125 6.09375 41.640625 
Q 8.9375 42.96875 12.203125 42.96875 
Q 15.234375 42.96875 17.921875 41.8125 
Q 20.609375 40.671875 22.578125 38.6875 
Q 24.5625 36.71875 25.703125 34.03125 
Q 26.859375 31.34375 26.859375 28.328125 
L 26.859375 0.484375 
L 26.375 0 
L 22.46875 0 
L 21.96875 0.484375 
L 21.96875 28.328125 
Q 21.96875 30.375 21.203125 32.15625 
Q 20.453125 33.9375 19.140625 35.25 
Q 17.828125 36.578125 16.046875 37.328125 
Q 14.265625 38.09375 12.203125 38.09375 
Q 10.015625 38.09375 8.125 37.203125 
Q 6.25 36.328125 4.890625 34.765625 
L 4.390625 34.765625 
z
M -18.0625 53.21875 
Q -18.0625 54.34375 -17.640625 55.3125 
Q -17.234375 56.296875 -16.5 57.03125 
Q -15.765625 57.765625 -14.78125 58.171875 
Q -13.8125 58.59375 -12.703125 58.59375 
Q -11.578125 58.59375 -10.59375 58.171875 
Q -9.625 57.765625 -8.890625 57.03125 
Q -8.15625 56.296875 -7.734375 55.3125 
Q -7.328125 54.34375 -7.328125 53.21875 
Q -7.328125 52.09375 -7.734375 51.109375 
Q -8.15625 50.140625 -8.890625 49.40625 
Q -9.625 48.6875 -10.59375 48.265625 
Q -11.578125 47.859375 -12.703125 47.859375 
Q -13.8125 47.859375 -14.78125 48.265625 
Q -15.765625 48.6875 -16.5 49.40625 
Q -17.234375 50.140625 -17.640625 51.109375 
Q -18.0625 52.09375 -18.0625 53.21875 
z
M -14.65625 53.21875 
Q -14.65625 52.390625 -14.09375 51.828125 
Q -13.53125 51.265625 -12.703125 51.265625 
Q -11.859375 51.265625 -11.296875 51.828125 
Q -10.75 52.390625 -10.75 53.21875 
Q -10.75 54.046875 -11.296875 54.609375 
Q -11.859375 55.171875 -12.703125 55.171875 
Q -13.53125 55.171875 -14.09375 54.609375 
Q -14.65625 54.046875 -14.65625 53.21875 
z
" id="Circular-3635"/>
      <path d="M 16.609375 38.09375 
Q 14.75 38.09375 13.109375 37.453125 
Q 11.46875 36.8125 10.171875 35.71875 
Q 8.890625 34.625 8.0625 33.109375 
Q 7.234375 31.59375 6.9375 29.828125 
L 6.453125 29.734375 
L 2.296875 31.546875 
Q 2.828125 33.984375 4.140625 36.078125 
Q 5.46875 38.1875 7.375 39.71875 
Q 9.28125 41.265625 11.625 42.109375 
Q 13.96875 42.96875 16.609375 42.96875 
Q 19.625 42.96875 22.3125 41.8125 
Q 25 40.671875 26.96875 38.6875 
Q 28.953125 36.71875 30.09375 34.03125 
Q 31.25 31.34375 31.25 28.328125 
L 31.25 12.203125 
Q 31.25 9.671875 30.296875 7.4375 
Q 29.34375 5.21875 27.6875 3.5625 
Q 26.03125 1.90625 23.796875 0.953125 
Q 21.578125 0 19.046875 0 
Q 15.921875 0 13.1875 1.515625 
L 13.1875 6.390625 
L 13.671875 6.390625 
Q 15.09375 5.671875 16.265625 5.28125 
Q 17.4375 4.890625 19.046875 4.890625 
Q 20.5625 4.890625 21.90625 5.46875 
Q 23.25 6.0625 24.21875 7.03125 
Q 25.203125 8.015625 25.78125 9.34375 
Q 26.375 10.6875 26.375 12.203125 
L 26.375 28.328125 
Q 26.375 30.375 25.609375 32.15625 
Q 24.859375 33.9375 23.53125 35.25 
Q 22.21875 36.578125 20.4375 37.328125 
Q 18.65625 38.09375 16.609375 38.09375 
z
" id="Circular-3623"/>
      <path d="M 30.171875 0.484375 
L 30.171875 28.328125 
Q 30.171875 30.375 29.40625 32.15625 
Q 28.65625 33.9375 27.34375 35.25 
Q 26.03125 36.578125 24.25 37.328125 
Q 22.46875 38.09375 20.40625 38.09375 
Q 16.9375 38.09375 14.625 36.75 
Q 12.3125 35.40625 10.859375 33.125 
Q 9.421875 30.859375 8.8125 27.78125 
Q 8.203125 24.703125 8.203125 21.296875 
Q 8.203125 17.828125 8.8125 14.84375 
Q 9.421875 11.859375 10.859375 9.640625 
Q 12.3125 7.421875 14.625 6.15625 
Q 16.9375 4.890625 20.40625 4.890625 
Q 21.78125 4.890625 22.796875 5.15625 
Q 23.828125 5.421875 24.8125 5.953125 
L 25.296875 5.953125 
L 25.296875 1.171875 
Q 23.25 0 20.40625 0 
Q 15.96875 0 12.734375 1.65625 
Q 9.515625 3.328125 7.421875 6.203125 
Q 5.328125 9.078125 4.328125 12.953125 
Q 3.328125 16.84375 3.328125 21.296875 
Q 3.328125 25.734375 4.328125 29.6875 
Q 5.328125 33.640625 7.421875 36.59375 
Q 9.515625 39.546875 12.734375 41.25 
Q 15.96875 42.96875 20.40625 42.96875 
Q 23.4375 42.96875 26.125 41.8125 
Q 28.8125 40.671875 30.78125 38.6875 
Q 32.765625 36.71875 33.90625 34.03125 
Q 35.0625 31.34375 35.0625 28.328125 
L 35.0625 0.484375 
L 34.578125 0 
L 30.671875 0 
z
" id="Circular-3604"/>
      <path d="M 28.8125 42.96875 
L 32.71875 42.96875 
L 33.203125 42.484375 
L 33.203125 14.65625 
Q 33.203125 11.625 32.046875 8.9375 
Q 30.90625 6.25 28.921875 4.265625 
Q 26.953125 2.296875 24.265625 1.140625 
Q 21.578125 0 18.5625 0 
Q 15.53125 0 12.84375 1.140625 
Q 10.15625 2.296875 8.171875 4.265625 
Q 6.203125 6.25 5.046875 8.9375 
Q 3.90625 11.625 3.90625 14.65625 
Q 3.90625 17.625 4.640625 19.65625 
Q 5.375 21.6875 6.4375 23.1875 
Q 7.515625 24.703125 8.78125 25.953125 
Q 10.0625 27.203125 11.125 28.546875 
Q 12.203125 29.890625 12.9375 31.546875 
Q 13.671875 33.203125 13.671875 35.640625 
Q 13.671875 36.671875 12.953125 37.375 
Q 12.25 38.09375 11.234375 38.09375 
Q 9.859375 38.09375 8.859375 37.578125 
Q 7.859375 37.0625 6.84375 36.375 
L 6.34375 36.375 
L 6.34375 41.015625 
Q 7.328125 41.9375 8.546875 42.453125 
Q 9.765625 42.96875 11.234375 42.96875 
Q 12.75 42.96875 14.09375 42.375 
Q 15.4375 41.796875 16.40625 40.8125 
Q 17.390625 39.84375 17.96875 38.5 
Q 18.5625 37.15625 18.5625 35.640625 
Q 18.5625 32.8125 17.828125 30.78125 
Q 17.09375 28.765625 16.015625 27.140625 
Q 14.9375 25.53125 13.671875 24.21875 
Q 12.40625 22.90625 11.328125 21.484375 
Q 10.25 20.0625 9.515625 18.453125 
Q 8.796875 16.84375 8.796875 14.65625 
Q 8.796875 12.59375 9.546875 10.8125 
Q 10.296875 9.03125 11.609375 7.703125 
Q 12.9375 6.390625 14.71875 5.640625 
Q 16.5 4.890625 18.5625 4.890625 
Q 20.609375 4.890625 22.390625 5.640625 
Q 24.171875 6.390625 25.484375 7.703125 
Q 26.8125 9.03125 27.5625 10.8125 
Q 28.328125 12.59375 28.328125 14.65625 
L 28.328125 42.484375 
z
" id="Circular-3586"/>
      <path d="M 1.21875 38.03125 
Q 3.265625 40.328125 6.09375 41.640625 
Q 8.9375 42.96875 12.203125 42.96875 
Q 15.234375 42.96875 17.921875 41.8125 
Q 20.609375 40.671875 22.578125 38.6875 
Q 24.5625 36.71875 25.703125 34.03125 
Q 26.859375 31.34375 26.859375 28.328125 
L 26.859375 0.484375 
L 26.375 0 
L 22.46875 0 
L 21.96875 0.484375 
L 21.96875 28.328125 
Q 21.96875 30.375 21.203125 32.15625 
Q 20.453125 33.9375 19.140625 35.25 
Q 17.828125 36.578125 16.046875 37.328125 
Q 14.265625 38.09375 12.203125 38.09375 
Q 10.015625 38.09375 8.125 37.203125 
Q 6.25 36.328125 4.890625 34.765625 
L 4.390625 34.765625 
z
" id="Circular-3634"/>
      <path d="M 7.90625 26.859375 
Q 7.90625 20.609375 8.296875 15.640625 
Q 8.6875 10.6875 9.34375 7.203125 
Q 10.015625 3.71875 10.890625 1.859375 
Q 11.765625 0 12.796875 0 
Q 13.625 0 14.328125 0.0625 
Q 15.046875 0.140625 15.625 0.390625 
L 16.109375 0.390625 
L 16.109375 -4.34375 
Q 15.4375 -4.59375 14.59375 -4.734375 
Q 13.765625 -4.890625 12.796875 -4.890625 
Q 10.796875 -4.890625 9.015625 -3.375 
Q 7.234375 -1.859375 5.90625 1.796875 
Q 4.59375 5.46875 3.8125 11.5625 
Q 3.03125 17.671875 3.03125 26.859375 
Q 3.03125 32.953125 3.375 37.6875 
Q 3.71875 42.4375 4.34375 45.953125 
Q 4.984375 49.46875 5.875 51.875 
Q 6.78125 54.296875 7.859375 55.78125 
Q 8.9375 57.28125 10.171875 57.9375 
Q 11.421875 58.59375 12.796875 58.59375 
Q 13.765625 58.59375 14.59375 58.4375 
Q 15.4375 58.296875 16.109375 58.0625 
L 16.109375 53.328125 
L 15.625 53.328125 
Q 15.046875 53.5625 14.328125 53.640625 
Q 13.625 53.71875 12.796875 53.71875 
Q 11.765625 53.71875 10.890625 51.859375 
Q 10.015625 50 9.34375 46.5 
Q 8.6875 43.015625 8.296875 38.03125 
Q 7.90625 33.0625 7.90625 26.859375 
z
" id="Circular-40"/>
      <path d="M 30.765625 0.484375 
L 30.765625 27.59375 
Q 30.765625 29.78125 29.9375 31.6875 
Q 29.109375 33.59375 27.6875 35 
Q 26.265625 36.421875 24.359375 37.25 
Q 22.46875 38.09375 20.265625 38.09375 
Q 18.0625 38.09375 16.15625 37.25 
Q 14.265625 36.421875 12.84375 35 
Q 11.421875 33.59375 10.59375 31.6875 
Q 9.765625 29.78125 9.765625 27.59375 
L 9.765625 16.609375 
Q 11.8125 19.390625 14.5 20.671875 
Q 17.1875 21.96875 20.265625 21.96875 
Q 21.234375 21.96875 22.0625 21.828125 
Q 22.90625 21.6875 23.578125 21.4375 
L 23.578125 16.703125 
L 23.09375 16.703125 
Q 22.515625 16.9375 21.796875 17.015625 
Q 21.09375 17.09375 20.265625 17.09375 
Q 18.0625 17.09375 16.15625 16.265625 
Q 14.265625 15.4375 12.84375 14.015625 
Q 11.421875 12.59375 10.59375 10.6875 
Q 9.765625 8.796875 9.765625 6.59375 
L 9.765625 0.484375 
L 9.28125 0 
L 5.375 0 
L 4.890625 0.484375 
L 4.890625 27.59375 
Q 4.890625 30.765625 6.078125 33.5625 
Q 7.28125 36.375 9.375 38.453125 
Q 11.46875 40.53125 14.28125 41.75 
Q 17.09375 42.96875 20.265625 42.96875 
Q 23.4375 42.96875 26.234375 41.75 
Q 29.046875 40.53125 31.125 38.453125 
Q 33.203125 36.375 34.421875 33.5625 
Q 35.640625 30.765625 35.640625 27.59375 
L 35.640625 0.484375 
L 35.15625 0 
L 31.25 0 
z
" id="Circular-3588"/>
      <path d="M -24.421875 56.15625 
Q -24.421875 57.078125 -24.265625 57.734375 
Q -24.125 58.40625 -23.875 59.078125 
L -19.140625 59.078125 
L -19.140625 58.59375 
Q -19.390625 58.015625 -19.453125 57.5625 
Q -19.53125 57.125 -19.53125 56.296875 
Q -19.53125 55.078125 -18.8125 54.140625 
Q -18.109375 53.21875 -17.09375 53.21875 
L -3.953125 53.21875 
L -3.421875 52.6875 
L -3.421875 49.359375 
L -3.953125 48.828125 
L -17.09375 48.828125 
Q -18.609375 48.828125 -19.953125 49.21875 
Q -21.296875 49.609375 -22.265625 50.484375 
Q -23.25 51.375 -23.828125 52.765625 
Q -24.421875 54.15625 -24.421875 56.15625 
z
" id="Circular-3633"/>
      <path d="M 10.25 26.859375 
Q 10.25 33.0625 9.859375 38.03125 
Q 9.46875 43.015625 8.8125 46.5 
Q 8.15625 50 7.265625 51.859375 
Q 6.390625 53.71875 5.375 53.71875 
Q 4.546875 53.71875 3.828125 53.640625 
Q 3.125 53.5625 2.546875 53.328125 
L 2.046875 53.328125 
L 2.046875 58.0625 
Q 2.734375 58.296875 3.5625 58.4375 
Q 4.390625 58.59375 5.375 58.59375 
Q 6.6875 58.59375 7.953125 57.9375 
Q 9.234375 57.28125 10.296875 55.78125 
Q 11.375 54.296875 12.28125 51.875 
Q 13.1875 49.46875 13.8125 45.953125 
Q 14.453125 42.4375 14.796875 37.6875 
Q 15.140625 32.953125 15.140625 26.859375 
Q 15.140625 17.671875 14.359375 11.5625 
Q 13.578125 5.46875 12.25 1.796875 
Q 10.9375 -1.859375 9.15625 -3.375 
Q 7.375 -4.890625 5.375 -4.890625 
Q 4.390625 -4.890625 3.5625 -4.734375 
Q 2.734375 -4.59375 2.046875 -4.34375 
L 2.046875 0.390625 
L 2.546875 0.390625 
Q 3.125 0.140625 3.828125 0.0625 
Q 4.546875 0 5.375 0 
Q 6.390625 0 7.265625 1.859375 
Q 8.15625 3.71875 8.8125 7.203125 
Q 9.46875 10.6875 9.859375 15.640625 
Q 10.25 20.609375 10.25 26.859375 
z
" id="Circular-41"/>
     </defs>
     <g transform="translate(43.28125 435.421875)rotate(-90)scale(0.2 -0.2)">
      <use xlink:href="#Circular-3592"/>
      <use x="36.083984" xlink:href="#Circular-3635"/>
      <use x="67.822266" xlink:href="#Circular-3609"/>
      <use x="108.349609" xlink:href="#Circular-3623"/>
      <use x="144.482422" xlink:href="#Circular-3609"/>
      <use x="185.009766" xlink:href="#Circular-3618"/>
      <use x="222.851562" xlink:href="#Circular-3629"/>
      <use x="259.472656" xlink:href="#Circular-3604"/>
      <use x="299.414062" xlink:href="#Circular-3586"/>
      <use x="337.5" xlink:href="#Circular-3634"/>
      <use x="369.238281" xlink:href="#Circular-3618"/>
      <use x="407.080078" xlink:href="#Circular-3619"/>
      <use x="442.431641" xlink:href="#Circular-3606"/>
      <use x="481.494141" xlink:href="#Circular-3618"/>
      <use x="519.335938" xlink:href="#Circular-3609"/>
      <use x="559.863281" xlink:href="#Circular-3605"/>
      <use x="600.78125" xlink:href="#Circular-3660"/>
      <use x="600.78125" xlink:href="#Circular-40"/>
      <use x="618.945312" xlink:href="#Circular-3588"/>
      <use x="659.472656" xlink:href="#Circular-3633"/>
      <use x="659.472656" xlink:href="#Circular-3609"/>
      <use x="700" xlink:href="#Circular-41"/>
     </g>
    </g>
   </g>
   <g id="patch_13">
    <path d="M 90 640.8 
L 90 86.4 
" style="fill:none;stroke:#000000;stroke-linecap:square;stroke-linejoin:miter;stroke-width:0.8;"/>
   </g>
   <g id="patch_14">
    <path d="M 648 640.8 
L 648 86.4 
" style="fill:none;stroke:#000000;stroke-linecap:square;stroke-linejoin:miter;stroke-width:0.8;"/>
   </g>
   <g id="patch_15">
    <path d="M 90 640.8 
L 648 640.8 
" style="fill:none;stroke:#000000;stroke-linecap:square;stroke-linejoin:miter;stroke-width:0.8;"/>
   </g>
   <g id="patch_16">
    <path d="M 90 86.4 
L 648 86.4 
" style="fill:none;stroke:#000000;stroke-linecap:square;stroke-linejoin:miter;stroke-width:0.8;"/>
   </g>
   <g id="text_22">
    <!-- ยอดขายรถยนต์ในเดือนกุมภาพันธ์ -->
    <defs>
     <path d="M -4.890625 58.890625 
Q -4.296875 60.40625 -3.265625 61.6875 
Q -2.25 62.984375 -0.90625 63.9375 
Q 0.4375 64.890625 2.015625 65.40625 
Q 3.609375 65.921875 5.375 65.921875 
Q 7.625 65.921875 9.625 65.0625 
Q 11.625 64.203125 13.140625 62.6875 
Q 14.65625 61.1875 15.5 59.171875 
Q 16.359375 57.171875 16.359375 54.9375 
Q 16.359375 52.640625 15.328125 50.703125 
Q 14.3125 48.78125 13.0625 47.046875 
Q 11.8125 45.3125 10.78125 43.765625 
Q 9.765625 42.234375 9.765625 40.765625 
L 9.765625 6.109375 
Q 9.765625 5.5625 10.109375 5.21875 
Q 10.453125 4.890625 10.984375 4.890625 
Q 11.8125 4.890625 12.515625 4.953125 
Q 13.234375 5.03125 13.8125 5.28125 
L 14.3125 5.28125 
L 14.3125 0.53125 
Q 13.625 0.296875 12.796875 0.140625 
Q 11.96875 0 10.984375 0 
Q 9.71875 0 8.609375 0.484375 
Q 7.515625 0.984375 6.6875 1.8125 
Q 5.859375 2.640625 5.375 3.734375 
Q 4.890625 4.828125 4.890625 6.109375 
L 4.890625 39.0625 
Q 4.890625 42.046875 5.90625 44.234375 
Q 6.9375 46.4375 8.171875 48.234375 
Q 9.421875 50.046875 10.4375 51.609375 
Q 11.46875 53.171875 11.46875 54.9375 
Q 11.46875 56.203125 10.984375 57.296875 
Q 10.5 58.40625 9.671875 59.234375 
Q 8.84375 60.0625 7.734375 60.546875 
Q 6.640625 61.03125 5.375 61.03125 
Q 3.421875 61.03125 1.96875 60.125 
Q 0.53125 59.234375 -0.140625 57.515625 
L -0.6875 57.328125 
z
" id="Circular-3651"/>
     <path d="M 4.890625 42.484375 
L 5.375 42.96875 
L 9.28125 42.96875 
L 9.765625 42.484375 
L 9.765625 6.109375 
Q 9.765625 5.5625 10.109375 5.21875 
Q 10.453125 4.890625 10.984375 4.890625 
Q 11.8125 4.890625 12.515625 4.953125 
Q 13.234375 5.03125 13.8125 5.28125 
L 14.3125 5.28125 
L 14.3125 0.53125 
Q 13.625 0.296875 12.796875 0.140625 
Q 11.96875 0 10.984375 0 
Q 9.71875 0 8.609375 0.484375 
Q 7.515625 0.984375 6.6875 1.8125 
Q 5.859375 2.640625 5.375 3.734375 
Q 4.890625 4.828125 4.890625 6.109375 
z
" id="Circular-3648"/>
     <path d="M -18.5625 50.875 
Q -19.875 50.875 -21.40625 50.625 
Q -22.953125 50.390625 -24.46875 49.921875 
Q -25.984375 49.46875 -27.3125 48.828125 
Q -28.65625 48.1875 -29.59375 47.40625 
L -30.03125 47.40625 
L -32.234375 50.78125 
L -32.234375 51.265625 
Q -30.953125 52.34375 -29.34375 53.1875 
Q -27.734375 54.046875 -25.953125 54.609375 
Q -24.171875 55.171875 -22.28125 55.46875 
Q -20.40625 55.765625 -18.5625 55.765625 
Q -17.71875 55.765625 -16.84375 55.6875 
Q -15.96875 55.609375 -15.140625 55.515625 
L -15.140625 58.109375 
L -14.65625 58.59375 
L -11.71875 58.59375 
L -11.234375 58.109375 
L -11.234375 54.640625 
Q -10.59375 54.390625 -9.984375 54.171875 
Q -9.375 53.953125 -8.796875 53.71875 
L -8.796875 58.109375 
L -8.296875 58.59375 
L -5.375 58.59375 
L -4.890625 58.109375 
L -4.890625 50.78125 
L -7.078125 47.40625 
L -7.515625 47.40625 
Q -8.5 48.1875 -9.8125 48.828125 
Q -11.140625 49.46875 -12.640625 49.921875 
Q -14.15625 50.390625 -15.6875 50.625 
Q -17.234375 50.875 -18.5625 50.875 
z
" id="Circular-3639"/>
     <path d="M 29.296875 28.328125 
Q 29.296875 30.375 28.53125 32.15625 
Q 27.78125 33.9375 26.453125 35.25 
Q 25.140625 36.578125 23.359375 37.328125 
Q 21.578125 38.09375 19.53125 38.09375 
Q 15.484375 38.09375 12.96875 36.890625 
Q 10.453125 35.6875 8.796875 32.90625 
Q 9.125 31.984375 9.34375 30.90625 
Q 9.578125 29.828125 9.640625 28.703125 
Q 9.71875 27.59375 9.734375 26.46875 
Q 9.765625 25.34375 9.765625 24.421875 
L 9.765625 0.484375 
L 9.28125 0 
L 5.375 0 
L 4.890625 0.484375 
L 4.890625 24.421875 
Q 4.890625 29.25 3.421875 32.90625 
Q 5.171875 37.546875 9.296875 40.25 
Q 13.421875 42.96875 19.53125 42.96875 
Q 22.5625 42.96875 25.25 41.8125 
Q 27.9375 40.671875 29.90625 38.6875 
Q 31.890625 36.71875 33.03125 34.03125 
Q 34.1875 31.34375 34.1875 28.328125 
L 34.1875 0.484375 
L 33.6875 0 
L 29.78125 0 
L 29.296875 0.484375 
z
" id="Circular-3585"/>
     <path d="M -13.921875 -9.28125 
Q -14.75 -9.28125 -15.453125 -9.34375 
Q -16.15625 -9.421875 -16.75 -9.671875 
L -17.234375 -9.671875 
L -17.234375 -4.9375 
Q -16.546875 -4.6875 -15.71875 -4.53125 
Q -14.890625 -4.390625 -13.921875 -4.390625 
Q -12.640625 -4.390625 -11.546875 -4.875 
Q -10.453125 -5.375 -9.625 -6.203125 
Q -8.796875 -7.03125 -8.296875 -8.125 
Q -7.8125 -9.234375 -7.8125 -10.5 
L -7.8125 -18.5625 
L -8.296875 -19.046875 
L -12.203125 -19.046875 
L -12.703125 -18.5625 
L -12.703125 -10.5 
Q -12.703125 -9.96875 -13.03125 -9.625 
Q -13.375 -9.28125 -13.921875 -9.28125 
z
" id="Circular-3640"/>
     <path d="M 30.515625 42.96875 
L 34.421875 42.96875 
L 34.90625 42.484375 
L 34.90625 14.65625 
Q 34.90625 11.625 33.859375 8.9375 
Q 32.8125 6.25 30.875 4.265625 
Q 28.953125 2.296875 26.234375 1.140625 
Q 23.53125 0 20.265625 0 
Q 17.1875 0 14.578125 1.65625 
Q 11.96875 3.328125 10.5 6.109375 
Q 10.5 4.640625 9.90625 3.484375 
Q 9.328125 2.34375 8.34375 1.578125 
Q 7.375 0.828125 6.03125 0.40625 
Q 4.6875 0 3.171875 0 
Q 2.828125 0 2.34375 0.203125 
L 2.34375 4.9375 
L 2.828125 4.9375 
L 3.171875 4.890625 
Q 4.203125 4.890625 4.90625 5.59375 
Q 5.609375 6.296875 5.609375 7.328125 
L 5.609375 35.640625 
Q 5.609375 36.671875 4.90625 37.375 
Q 4.203125 38.09375 3.171875 38.09375 
L 2.828125 38.03125 
L 2.34375 38.03125 
L 2.34375 42.78125 
Q 2.828125 42.96875 3.171875 42.96875 
Q 4.6875 42.96875 6.03125 42.484375 
Q 7.375 42 8.34375 41.15625 
Q 9.328125 40.328125 9.90625 39.15625 
Q 10.5 37.984375 10.5 36.625 
L 10.5 14.65625 
Q 10.5 12.59375 11.25 10.8125 
Q 12.015625 9.03125 13.328125 7.703125 
Q 14.65625 6.390625 16.4375 5.640625 
Q 18.21875 4.890625 20.265625 4.890625 
Q 22.3125 4.890625 24.09375 5.640625 
Q 25.875 6.390625 27.1875 7.703125 
Q 28.515625 9.03125 29.265625 10.8125 
Q 30.03125 12.59375 30.03125 14.65625 
L 30.03125 42.484375 
z
" id="Circular-3617"/>
     <path d="M 30.03125 0.484375 
L 30.03125 28.328125 
Q 30.03125 30.375 29.265625 32.15625 
Q 28.515625 33.9375 27.1875 35.25 
Q 25.875 36.578125 24.09375 37.328125 
Q 22.3125 38.09375 20.265625 38.09375 
Q 16.21875 38.09375 13.703125 36.890625 
Q 11.1875 35.6875 9.515625 32.90625 
Q 9.859375 31.984375 10.078125 30.90625 
Q 10.296875 29.828125 10.375 28.703125 
Q 10.453125 27.59375 10.46875 26.46875 
Q 10.5 25.34375 10.5 24.421875 
L 10.5 7.328125 
Q 10.5 5.8125 9.90625 4.46875 
Q 9.328125 3.125 8.34375 2.140625 
Q 7.375 1.171875 6.03125 0.578125 
Q 4.6875 0 3.171875 0 
Q 2.828125 0 2.34375 0.203125 
L 2.34375 4.9375 
L 2.828125 4.9375 
L 3.171875 4.890625 
Q 4.203125 4.890625 4.90625 5.59375 
Q 5.609375 6.296875 5.609375 7.328125 
L 5.609375 24.421875 
Q 5.609375 29.25 4.15625 32.90625 
Q 5.90625 37.546875 10.03125 40.25 
Q 14.15625 42.96875 20.265625 42.96875 
Q 23.296875 42.96875 25.96875 41.8125 
Q 28.65625 40.671875 30.640625 38.6875 
Q 32.625 36.71875 33.765625 34.03125 
Q 34.90625 31.34375 34.90625 28.328125 
L 34.90625 0.484375 
L 34.421875 0 
L 30.515625 0 
z
" id="Circular-3616"/>
     <path d="M 10.5 10.25 
Q 10.5 9.125 10.90625 8.140625 
Q 11.328125 7.171875 12.0625 6.4375 
Q 12.796875 5.71875 13.765625 5.296875 
Q 14.75 4.890625 15.875 4.890625 
Q 16.9375 4.890625 17.90625 5.328125 
Q 18.890625 5.765625 19.625 6.5 
Q 20.359375 7.234375 20.796875 8.203125 
Q 21.234375 9.1875 21.234375 10.25 
L 21.234375 33.890625 
L 21.53125 34.1875 
L 25.828125 34.1875 
L 26.125 33.890625 
L 26.125 10.25 
Q 26.125 9.125 26.53125 8.140625 
Q 26.953125 7.171875 27.6875 6.4375 
Q 28.421875 5.71875 29.390625 5.296875 
Q 30.375 4.890625 31.5 4.890625 
Q 32.625 4.890625 33.59375 5.296875 
Q 34.578125 5.71875 35.296875 6.4375 
Q 36.03125 7.171875 36.4375 8.140625 
Q 36.859375 9.125 36.859375 10.25 
L 36.859375 42.484375 
L 37.359375 42.96875 
L 41.265625 42.96875 
L 41.75 42.484375 
L 41.75 10.25 
Q 41.75 8.109375 40.9375 6.25 
Q 40.140625 4.390625 38.75 3 
Q 37.359375 1.609375 35.46875 0.796875 
Q 33.59375 0 31.5 0 
Q 29.15625 0 27.125 1.234375 
Q 25.09375 2.484375 23.6875 4.15625 
Q 22.265625 2.484375 20.234375 1.234375 
Q 18.21875 0 15.875 0 
Q 13.71875 0 11.859375 0.796875 
Q 10.015625 1.609375 8.625 3 
Q 7.234375 4.390625 6.421875 6.25 
Q 5.609375 8.109375 5.609375 10.25 
L 5.609375 35.640625 
Q 5.609375 36.671875 4.90625 37.375 
Q 4.203125 38.09375 3.171875 38.09375 
L 2.828125 38.03125 
L 2.34375 38.03125 
L 2.34375 42.78125 
Q 2.828125 42.96875 3.171875 42.96875 
Q 4.6875 42.96875 6.03125 42.484375 
Q 7.375 42 8.34375 41.15625 
Q 9.328125 40.328125 9.90625 39.15625 
Q 10.5 37.984375 10.5 36.625 
z
" id="Circular-3614"/>
     <path d="M 5.375 18.0625 
L 9.28125 18.0625 
L 9.765625 17.578125 
L 9.765625 5.859375 
Q 11.28125 5.5625 12.625 5.359375 
Q 13.96875 5.171875 15.3125 5.078125 
Q 16.65625 4.984375 18.015625 4.9375 
Q 19.390625 4.890625 21 4.890625 
Q 22.515625 4.890625 23.859375 5.46875 
Q 25.203125 6.0625 26.171875 7.03125 
Q 27.15625 8.015625 27.734375 9.34375 
Q 28.328125 10.6875 28.328125 12.203125 
Q 28.328125 13.875 27.765625 15.359375 
Q 27.203125 16.84375 26.21875 17.984375 
Q 25.25 19.140625 23.921875 19.828125 
Q 22.609375 20.515625 21.09375 20.515625 
L 15.71875 20.515625 
Q 13.28125 20.515625 11.125 21.296875 
Q 8.984375 22.078125 7.375 23.46875 
Q 5.765625 24.859375 4.828125 26.828125 
Q 3.90625 28.8125 3.90625 31.25 
Q 3.90625 33.640625 4.828125 35.78125 
Q 5.765625 37.9375 7.34375 39.546875 
Q 8.9375 41.15625 11.0625 42.078125 
Q 13.1875 43.015625 15.625 42.96875 
Q 17.828125 42.921875 19.71875 42.8125 
Q 21.625 42.71875 23.40625 42.546875 
Q 25.203125 42.390625 26.90625 42.140625 
Q 28.609375 41.890625 30.46875 41.609375 
L 30.46875 36.8125 
L 30.078125 36.625 
Q 28.125 36.96875 26.359375 37.25 
Q 24.609375 37.546875 22.875 37.71875 
Q 21.140625 37.890625 19.375 37.984375 
Q 17.625 38.09375 15.625 38.09375 
Q 14.203125 38.09375 12.953125 37.546875 
Q 11.71875 37.015625 10.78125 36.078125 
Q 9.859375 35.15625 9.328125 33.90625 
Q 8.796875 32.671875 8.796875 31.25 
Q 8.796875 29.828125 9.34375 28.734375 
Q 9.90625 27.640625 10.859375 26.90625 
Q 11.8125 26.171875 13.0625 25.78125 
Q 14.3125 25.390625 15.71875 25.390625 
L 21.09375 25.390625 
Q 23.640625 25.390625 25.828125 24.359375 
Q 28.03125 23.34375 29.65625 21.5625 
Q 31.296875 19.78125 32.25 17.359375 
Q 33.203125 14.9375 33.203125 12.203125 
Q 33.203125 9.671875 32.25 7.4375 
Q 31.296875 5.21875 29.640625 3.5625 
Q 27.984375 1.90625 25.75 0.953125 
Q 23.53125 0 21 0 
Q 18.796875 0 16.796875 0.09375 
Q 14.796875 0.203125 12.84375 0.390625 
Q 10.890625 0.59375 8.9375 0.90625 
Q 6.984375 1.21875 4.890625 1.65625 
L 4.890625 17.578125 
z
" id="Circular-3608"/>
    </defs>
    <g transform="translate(272.242969 80.4)scale(0.22 -0.22)">
     <use xlink:href="#Circular-3618"/>
     <use x="37.841797" xlink:href="#Circular-3629"/>
     <use x="74.462891" xlink:href="#Circular-3604"/>
     <use x="114.404297" xlink:href="#Circular-3586"/>
     <use x="152.490234" xlink:href="#Circular-3634"/>
     <use x="184.228516" xlink:href="#Circular-3618"/>
     <use x="222.070312" xlink:href="#Circular-3619"/>
     <use x="257.421875" xlink:href="#Circular-3606"/>
     <use x="296.484375" xlink:href="#Circular-3618"/>
     <use x="334.326172" xlink:href="#Circular-3609"/>
     <use x="374.853516" xlink:href="#Circular-3605"/>
     <use x="415.771484" xlink:href="#Circular-3660"/>
     <use x="415.771484" xlink:href="#Circular-3651"/>
     <use x="431.884766" xlink:href="#Circular-3609"/>
     <use x="472.412109" xlink:href="#Circular-3648"/>
     <use x="488.525391" xlink:href="#Circular-3604"/>
     <use x="528.466797" xlink:href="#Circular-3639"/>
     <use x="528.466797" xlink:href="#Circular-3629"/>
     <use x="565.087891" xlink:href="#Circular-3609"/>
     <use x="605.615234" xlink:href="#Circular-3585"/>
     <use x="644.677734" xlink:href="#Circular-3640"/>
     <use x="644.677734" xlink:href="#Circular-3617"/>
     <use x="684.472656" xlink:href="#Circular-3616"/>
     <use x="724.267578" xlink:href="#Circular-3634"/>
     <use x="756.005859" xlink:href="#Circular-3614"/>
     <use x="802.636719" xlink:href="#Circular-3633"/>
     <use x="802.636719" xlink:href="#Circular-3609"/>
     <use x="843.164062" xlink:href="#Circular-3608"/>
     <use x="879.589844" xlink:href="#Circular-3660"/>
    </g>
   </g>
  </g>
 </g>
 <defs>
  <clipPath id="pfc02cef910">
   <rect height="554.4" width="558" x="90" y="86.4"/>
  </clipPath>
 </defs>
</svg>
